<svg id="svg" version="1.1" xmlns="http://www.w3.org/2000/svg" xmlns:xlink="http://www.w3.org/1999/xlink" width="400" height="400" viewBox="0, 0, 400,400"><g id="svgg"><path id="path0" d="M272.626 92.783 C 267.095 95.012,263.953 102.061,266.178 107.251 C 266.938 109.023,272.612 117.081,283.183 131.400 C 284.645 133.380,286.587 136.014,287.499 137.254 L 289.157 139.508 288.078 141.117 C 287.485 142.001,286.236 143.777,285.303 145.063 C 283.299 147.822,282.034 149.568,276.310 157.474 C 273.950 160.733,270.910 164.930,269.554 166.800 C 266.322 171.258,265.599 173.004,265.604 176.333 C 265.613 182.379,270.799 187.600,276.796 187.600 C 278.283 187.600,278.892 187.425,281.865 186.142 C 283.541 185.418,285.928 182.708,290.678 176.135 C 292.835 173.150,295.999 168.794,297.709 166.454 C 299.419 164.114,301.710 160.940,302.799 159.400 C 303.888 157.860,305.729 155.309,306.890 153.731 C 308.050 152.153,310.335 149.003,311.966 146.731 C 313.597 144.459,315.352 142.091,315.866 141.469 C 317.187 139.870,317.185 139.864,313.192 134.367 C 308.459 127.851,303.348 120.806,301.600 118.389 C 300.830 117.324,299.109 114.956,297.776 113.127 C 296.443 111.297,293.792 107.640,291.886 105.000 C 285.316 95.904,284.317 94.732,282.070 93.478 C 279.240 91.898,275.504 91.624,272.626 92.783 M326.200 92.531 C 322.246 94.082,322.116 94.228,311.909 108.552 L 308.808 112.904 310.293 114.952 C 311.110 116.078,313.043 118.735,314.589 120.855 C 316.135 122.975,318.536 126.271,319.924 128.180 C 322.945 132.333,322.401 132.448,326.484 126.800 C 330.558 121.165,334.363 115.946,336.951 112.442 C 340.989 106.974,341.849 102.869,339.854 98.585 C 337.533 93.600,330.935 90.675,326.200 92.531 M65.537 94.408 C 63.711 95.373,61.705 97.758,61.172 99.600 C 60.906 100.519,60.806 115.579,60.883 143.400 L 61.000 185.800 72.600 185.800 L 84.200 185.800 84.400 167.800 L 84.600 149.800 102.600 149.595 C 122.748 149.367,121.856 149.497,124.525 146.379 C 126.420 144.166,126.800 142.473,126.800 136.257 L 126.800 130.807 105.700 130.704 L 84.600 130.600 84.491 122.922 L 84.383 115.244 85.795 113.832 L 87.207 112.420 109.115 112.310 L 131.022 112.200 133.011 111.183 C 134.348 110.500,135.426 109.534,136.300 108.238 L 137.600 106.310 137.600 99.955 L 137.600 93.600 102.300 93.618 C 68.201 93.635,66.950 93.662,65.537 94.408 M148.002 135.900 C 148.005 182.815,147.866 180.416,150.743 183.208 C 153.700 186.077,152.858 186.000,181.287 186.000 C 208.088 186.000,208.182 185.994,210.715 184.113 C 213.780 181.837,214.200 180.546,214.200 173.400 L 214.200 167.000 194.400 166.800 C 173.347 166.587,173.675 166.619,172.359 164.641 C 171.896 163.945,171.766 158.264,171.600 131.600 C 171.380 96.188,171.543 98.366,168.936 95.946 C 166.527 93.710,165.951 93.600,156.620 93.600 L 148.000 93.600 148.002 135.900 M228.960 94.900 C 227.623 95.800,226.685 96.864,225.908 98.359 L 224.786 100.518 224.893 110.159 L 225.000 119.800 233.814 119.800 L 242.628 119.800 244.586 118.393 C 247.912 116.002,248.375 114.601,248.389 106.887 C 248.408 95.716,246.508 93.600,236.461 93.600 L 230.890 93.600 228.960 94.900 M229.657 129.664 C 227.724 130.620,225.813 132.968,225.179 135.165 C 224.908 136.106,224.805 145.073,224.882 161.200 L 225.000 185.800 236.600 185.800 L 248.200 185.800 248.303 157.300 L 248.405 128.800 239.903 128.800 C 231.999 128.801,231.277 128.861,229.657 129.664 M319.966 151.121 C 311.468 162.834,309.200 166.101,309.200 166.631 C 309.200 166.962,310.991 169.701,313.180 172.717 C 315.369 175.733,317.890 179.209,318.783 180.441 C 321.013 183.522,322.962 185.460,324.502 186.126 C 327.499 187.423,328.113 187.600,329.604 187.600 C 337.479 187.600,343.303 178.499,339.840 171.604 C 338.565 169.066,323.192 147.994,322.635 148.021 C 322.396 148.033,321.195 149.428,319.966 151.121 M83.496 215.980 C 82.473 216.629,81.132 217.934,80.518 218.880 L 79.400 220.600 79.400 260.800 L 79.400 301.000 80.485 302.668 C 83.409 307.165,83.631 307.200,108.914 307.200 C 133.693 307.200,135.815 307.009,142.617 304.167 C 156.864 298.215,160.298 273.597,148.515 261.890 C 146.016 259.408,146.061 259.677,147.758 257.301 C 155.840 245.984,152.936 227.026,141.980 219.587 C 135.140 214.941,134.127 214.800,107.686 214.800 L 85.357 214.800 83.496 215.980 M173.073 215.995 C 172.019 216.663,170.663 218.019,169.995 219.073 L 168.800 220.957 168.814 253.178 C 168.829 286.253,168.827 286.203,170.348 291.124 C 172.610 298.438,179.869 304.719,189.023 307.283 C 194.027 308.685,216.546 308.662,221.600 307.250 C 231.487 304.488,237.692 298.820,240.697 289.804 L 241.764 286.600 241.902 250.700 L 242.039 214.800 235.669 214.800 C 228.607 214.800,227.375 215.087,225.232 217.230 C 222.432 220.029,222.621 217.734,222.400 251.600 L 222.200 282.200 221.126 284.236 C 215.616 294.677,193.454 293.980,189.102 283.228 L 188.200 281.000 188.081 247.900 L 187.961 214.800 181.459 214.800 L 174.957 214.800 173.073 215.995 M275.600 215.183 C 275.050 215.359,273.790 215.744,272.800 216.038 C 254.471 221.484,247.191 245.654,259.527 260.105 C 266.093 267.797,273.201 270.379,287.851 270.393 C 293.384 270.398,295.422 270.541,296.451 270.995 C 302.796 273.792,303.697 282.163,298.109 286.400 L 296.262 287.800 276.231 287.899 C 265.214 287.953,255.776 288.096,255.258 288.217 L 254.317 288.436 254.469 294.718 C 254.667 302.878,255.875 305.100,260.928 306.601 C 263.421 307.341,291.825 307.474,296.523 306.767 C 319.715 303.278,329.312 275.215,312.737 259.356 C 306.381 253.275,301.254 251.600,288.996 251.600 C 281.291 251.600,279.648 251.414,277.206 250.267 C 272.138 247.887,270.952 240.176,275.064 236.341 C 278.130 233.482,277.233 233.603,295.323 233.601 C 318.985 233.599,319.605 233.284,319.912 221.100 L 320.070 214.800 298.335 214.832 C 286.381 214.849,276.150 215.007,275.600 215.183 M124.846 230.685 C 132.840 234.520,132.674 246.163,124.569 249.972 C 121.814 251.268,104.283 251.235,101.961 249.930 C 98.667 248.079,98.242 246.810,98.068 238.301 C 97.983 234.176,98.020 230.524,98.151 230.184 C 98.581 229.062,122.393 229.509,124.846 230.685 M126.767 268.788 C 133.124 271.112,136.252 278.643,133.454 284.889 C 130.780 290.856,128.437 291.769,115.391 291.924 L 104.982 292.047 102.797 290.906 C 101.193 290.068,100.292 289.246,99.406 287.814 L 98.200 285.864 98.059 277.526 C 97.982 272.940,98.022 268.921,98.147 268.594 C 98.545 267.558,123.870 267.729,126.767 268.788 " stroke="none" fill="#fbfbfa" fill-rule="evenodd"></path><path id="path1" d="M29.300 0.291 C 28.365 0.376,27.600 0.616,27.600 0.823 C 27.600 1.030,27.150 1.200,26.600 1.200 C 26.050 1.200,25.600 1.380,25.600 1.600 C 25.600 1.820,25.060 2.000,24.400 2.000 C 23.740 2.000,23.200 2.180,23.200 2.400 C 23.200 2.620,22.840 2.800,22.400 2.800 C 21.960 2.800,21.600 2.980,21.600 3.200 C 21.600 3.420,21.240 3.600,20.800 3.600 C 20.360 3.600,20.000 3.780,20.000 4.000 C 20.000 4.220,19.680 4.400,19.288 4.400 C 18.897 4.400,18.317 4.760,18.000 5.200 C 17.683 5.640,17.143 6.000,16.800 6.000 C 16.457 6.000,15.917 6.360,15.600 6.800 C 15.283 7.240,14.793 7.600,14.512 7.600 C 14.230 7.600,12.560 9.040,10.800 10.800 C 9.040 12.560,7.600 14.230,7.600 14.512 C 7.600 14.793,7.240 15.283,6.800 15.600 C 6.360 15.917,6.000 16.457,6.000 16.800 C 6.000 17.143,5.640 17.683,5.200 18.000 C 4.760 18.317,4.400 18.897,4.400 19.288 C 4.400 19.680,4.220 20.000,4.000 20.000 C 3.780 20.000,3.600 20.360,3.600 20.800 C 3.600 21.240,3.420 21.600,3.200 21.600 C 2.980 21.600,2.800 21.960,2.800 22.400 C 2.800 22.840,2.620 23.200,2.400 23.200 C 2.180 23.200,2.000 23.740,2.000 24.400 C 2.000 25.060,1.820 25.600,1.600 25.600 C 1.380 25.600,1.200 26.035,1.200 26.567 C 1.200 27.098,0.975 27.608,0.700 27.700 C -0.036 27.945,-0.036 372.055,0.700 372.300 C 0.975 372.392,1.200 372.891,1.200 373.410 C 1.200 373.928,1.380 374.464,1.600 374.600 C 1.820 374.736,2.000 375.287,2.000 375.824 C 2.000 376.361,2.180 376.800,2.400 376.800 C 2.620 376.800,2.800 377.160,2.800 377.600 C 2.800 378.040,2.980 378.400,3.200 378.400 C 3.420 378.400,3.600 378.760,3.600 379.200 C 3.600 379.640,3.780 380.000,4.000 380.000 C 4.220 380.000,4.400 380.320,4.400 380.712 C 4.400 381.103,4.760 381.683,5.200 382.000 C 5.640 382.317,6.000 382.857,6.000 383.200 C 6.000 383.543,6.360 384.083,6.800 384.400 C 7.240 384.717,7.600 385.204,7.600 385.482 C 7.600 386.184,13.762 392.400,14.458 392.400 C 14.769 392.400,15.283 392.760,15.600 393.200 C 15.917 393.640,16.457 394.000,16.800 394.000 C 17.143 394.000,17.683 394.360,18.000 394.800 C 18.317 395.240,18.897 395.600,19.288 395.600 C 19.680 395.600,20.000 395.780,20.000 396.000 C 20.000 396.220,20.360 396.400,20.800 396.400 C 21.240 396.400,21.600 396.580,21.600 396.800 C 21.600 397.020,21.960 397.200,22.400 397.200 C 22.840 397.200,23.200 397.380,23.200 397.600 C 23.200 397.820,23.740 398.000,24.400 398.000 C 25.060 398.000,25.600 398.180,25.600 398.400 C 25.600 398.620,26.035 398.800,26.567 398.800 C 27.098 398.800,27.608 399.025,27.700 399.300 C 27.945 400.036,372.055 400.036,372.300 399.300 C 372.392 399.025,372.891 398.800,373.410 398.800 C 373.928 398.800,374.464 398.620,374.600 398.400 C 374.736 398.180,375.287 398.000,375.824 398.000 C 376.361 398.000,376.800 397.820,376.800 397.600 C 376.800 397.380,377.160 397.200,377.600 397.200 C 378.040 397.200,378.400 397.020,378.400 396.800 C 378.400 396.580,378.760 396.400,379.200 396.400 C 379.640 396.400,380.000 396.220,380.000 396.000 C 380.000 395.780,380.320 395.600,380.712 395.600 C 381.103 395.600,381.683 395.240,382.000 394.800 C 382.317 394.360,382.857 394.000,383.200 394.000 C 383.543 394.000,384.083 393.640,384.400 393.200 C 384.717 392.760,385.203 392.400,385.481 392.400 C 386.196 392.400,391.316 387.486,392.013 386.131 C 392.333 385.509,392.911 384.709,393.297 384.353 C 393.684 383.997,394.000 383.452,394.000 383.141 C 394.000 382.831,394.360 382.317,394.800 382.000 C 395.240 381.683,395.600 381.103,395.600 380.712 C 395.600 380.320,395.780 380.000,396.000 380.000 C 396.220 380.000,396.400 379.640,396.400 379.200 C 396.400 378.760,396.580 378.400,396.800 378.400 C 397.020 378.400,397.200 378.040,397.200 377.600 C 397.200 377.160,397.380 376.800,397.600 376.800 C 397.820 376.800,398.000 376.361,398.000 375.824 C 398.000 375.287,398.180 374.736,398.400 374.600 C 398.620 374.464,398.800 373.928,398.800 373.410 C 398.800 372.891,399.025 372.392,399.300 372.300 C 400.036 372.055,400.036 27.945,399.300 27.700 C 399.025 27.608,398.800 27.098,398.800 26.567 C 398.800 26.035,398.620 25.600,398.400 25.600 C 398.180 25.600,398.000 25.060,398.000 24.400 C 398.000 23.740,397.820 23.200,397.600 23.200 C 397.380 23.200,397.200 22.840,397.200 22.400 C 397.200 21.960,397.020 21.600,396.800 21.600 C 396.580 21.600,396.400 21.240,396.400 20.800 C 396.400 20.360,396.220 20.000,396.000 20.000 C 395.780 20.000,395.600 19.680,395.600 19.288 C 395.600 18.897,395.240 18.317,394.800 18.000 C 394.360 17.683,394.000 17.143,394.000 16.800 C 394.000 16.457,393.640 15.917,393.200 15.600 C 392.760 15.283,392.400 14.769,392.400 14.458 C 392.400 13.762,386.184 7.600,385.482 7.600 C 385.204 7.600,384.717 7.240,384.400 6.800 C 384.083 6.360,383.543 6.000,383.200 6.000 C 382.857 6.000,382.317 5.640,382.000 5.200 C 381.683 4.760,381.103 4.400,380.712 4.400 C 380.320 4.400,380.000 4.220,380.000 4.000 C 380.000 3.780,379.640 3.600,379.200 3.600 C 378.760 3.600,378.400 3.420,378.400 3.200 C 378.400 2.980,378.040 2.800,377.600 2.800 C 377.160 2.800,376.800 2.620,376.800 2.400 C 376.800 2.180,376.361 2.000,375.824 2.000 C 375.287 2.000,374.736 1.820,374.600 1.600 C 374.464 1.380,373.928 1.200,373.410 1.200 C 372.891 1.200,372.392 0.975,372.300 0.700 C 372.143 0.229,34.399 -0.174,29.300 0.291 M282.070 93.478 C 284.317 94.732,285.316 95.904,291.886 105.000 C 293.792 107.640,296.443 111.297,297.776 113.127 C 299.109 114.956,300.830 117.324,301.600 118.389 C 303.348 120.806,308.459 127.851,313.192 134.367 C 317.185 139.864,317.187 139.870,315.866 141.469 C 315.352 142.091,313.597 144.459,311.966 146.731 C 310.335 149.003,308.050 152.153,306.890 153.731 C 305.729 155.309,303.888 157.860,302.799 159.400 C 301.710 160.940,299.419 164.114,297.709 166.454 C 295.999 168.794,292.835 173.150,290.678 176.135 C 285.928 182.708,283.541 185.418,281.865 186.142 C 278.892 187.425,278.283 187.600,276.796 187.600 C 270.799 187.600,265.613 182.379,265.604 176.333 C 265.599 173.004,266.322 171.258,269.554 166.800 C 270.910 164.930,273.950 160.733,276.310 157.474 C 282.034 149.568,283.299 147.822,285.303 145.063 C 286.236 143.777,287.485 142.001,288.078 141.117 L 289.157 139.508 287.499 137.254 C 286.587 136.014,284.645 133.380,283.183 131.400 C 272.612 117.081,266.938 109.023,266.178 107.251 C 262.216 98.008,273.172 88.512,282.070 93.478 M333.307 92.630 C 341.518 95.428,343.113 104.098,336.951 112.442 C 334.363 115.946,330.558 121.165,326.484 126.800 C 322.401 132.448,322.945 132.333,319.924 128.180 C 318.536 126.271,316.135 122.975,314.589 120.855 C 313.043 118.735,311.110 116.078,310.293 114.952 L 308.808 112.904 311.909 108.552 C 317.214 101.107,320.155 97.110,321.359 95.708 C 324.163 92.446,329.062 91.184,333.307 92.630 M137.600 99.955 L 137.600 106.310 136.300 108.238 C 135.426 109.534,134.348 110.500,133.011 111.183 L 131.022 112.200 109.115 112.310 L 87.207 112.420 85.795 113.832 L 84.383 115.244 84.491 122.922 L 84.600 130.600 105.700 130.704 L 126.800 130.807 126.800 136.257 C 126.800 142.473,126.420 144.166,124.525 146.379 C 121.856 149.497,122.748 149.367,102.600 149.595 L 84.600 149.800 84.400 167.800 L 84.200 185.800 72.600 185.800 L 61.000 185.800 60.883 143.400 C 60.758 98.169,60.714 99.245,62.826 96.691 C 65.542 93.406,62.568 93.638,102.300 93.618 L 137.600 93.600 137.600 99.955 M166.520 94.246 C 168.186 95.086,169.904 96.697,170.736 98.200 C 171.334 99.282,171.420 102.578,171.600 131.600 C 171.766 158.264,171.896 163.945,172.359 164.641 C 173.675 166.619,173.347 166.587,194.400 166.800 L 214.200 167.000 214.200 173.400 C 214.200 180.546,213.780 181.837,210.715 184.113 C 208.182 185.994,208.088 186.000,181.287 186.000 C 152.858 186.000,153.700 186.077,150.743 183.208 C 147.866 180.416,148.005 182.815,148.002 135.900 L 148.000 93.600 156.620 93.600 C 163.758 93.600,165.460 93.711,166.520 94.246 M243.566 94.382 C 247.524 96.402,248.403 98.680,248.389 106.887 C 248.375 114.601,247.912 116.002,244.586 118.393 L 242.628 119.800 233.814 119.800 L 225.000 119.800 224.893 110.159 L 224.786 100.518 225.908 98.359 C 226.685 96.864,227.623 95.800,228.960 94.900 L 230.890 93.600 236.461 93.600 C 241.201 93.600,242.261 93.717,243.566 94.382 M248.303 157.300 L 248.200 185.800 236.600 185.800 L 225.000 185.800 224.882 161.200 C 224.757 134.994,224.765 134.873,226.753 132.128 C 228.937 129.114,230.174 128.801,239.903 128.800 L 248.405 128.800 248.303 157.300 M330.975 158.846 C 340.267 171.596,340.800 172.534,340.800 176.125 C 340.800 182.260,335.590 187.600,329.604 187.600 C 328.113 187.600,327.499 187.423,324.502 186.126 C 322.962 185.460,321.013 183.522,318.783 180.441 C 317.890 179.209,315.369 175.733,313.180 172.717 C 308.351 166.063,308.324 167.244,313.466 160.115 C 321.616 148.816,322.202 148.042,322.635 148.021 C 322.874 148.009,326.627 152.881,330.975 158.846 M132.931 215.582 C 144.405 218.656,150.456 225.683,152.037 237.768 C 152.988 245.036,151.426 252.163,147.758 257.301 C 146.061 259.677,146.016 259.408,148.515 261.890 C 160.298 273.597,156.864 298.215,142.617 304.167 C 135.815 307.009,133.693 307.200,108.914 307.200 C 83.631 307.200,83.409 307.165,80.485 302.668 L 79.400 301.000 79.400 260.800 L 79.400 220.600 80.518 218.880 C 81.132 217.934,82.473 216.629,83.496 215.980 L 85.357 214.800 107.686 214.800 C 128.577 214.800,130.202 214.850,132.931 215.582 M188.081 247.900 L 188.200 281.000 189.102 283.228 C 193.454 293.980,215.616 294.677,221.126 284.236 L 222.200 282.200 222.400 251.600 C 222.621 217.734,222.432 220.029,225.232 217.230 C 227.375 215.087,228.607 214.800,235.669 214.800 L 242.039 214.800 241.902 250.700 L 241.764 286.600 240.697 289.804 C 237.692 298.820,231.487 304.488,221.600 307.250 C 216.546 308.662,194.027 308.685,189.023 307.283 C 179.869 304.719,172.610 298.438,170.348 291.124 C 168.827 286.203,168.829 286.253,168.814 253.178 L 168.800 220.957 169.995 219.073 C 170.663 218.019,172.019 216.663,173.073 215.995 L 174.957 214.800 181.459 214.800 L 187.961 214.800 188.081 247.900 M319.912 221.100 C 319.605 233.284,318.985 233.599,295.323 233.601 C 277.233 233.603,278.130 233.482,275.064 236.341 C 270.952 240.176,272.138 247.887,277.206 250.267 C 279.648 251.414,281.291 251.600,288.996 251.600 C 301.254 251.600,306.381 253.275,312.737 259.356 C 329.312 275.215,319.715 303.278,296.523 306.767 C 291.825 307.474,263.421 307.341,260.928 306.601 C 255.875 305.100,254.667 302.878,254.469 294.718 L 254.317 288.436 255.258 288.217 C 255.776 288.096,265.214 287.953,276.231 287.899 L 296.262 287.800 298.109 286.400 C 303.697 282.163,302.796 273.792,296.451 270.995 C 295.422 270.541,293.384 270.398,287.851 270.393 C 273.201 270.379,266.093 267.797,259.527 260.105 C 247.191 245.654,254.471 221.484,272.800 216.038 C 273.790 215.744,275.050 215.359,275.600 215.183 C 276.150 215.007,286.381 214.849,298.335 214.832 L 320.070 214.800 319.912 221.100 M98.151 230.184 C 98.020 230.524,97.983 234.176,98.068 238.301 C 98.242 246.810,98.667 248.079,101.961 249.930 C 104.283 251.235,121.814 251.268,124.569 249.972 C 132.674 246.163,132.840 234.520,124.846 230.685 C 122.393 229.509,98.581 229.062,98.151 230.184 M98.147 268.594 C 98.022 268.921,97.982 272.940,98.059 277.526 L 98.200 285.864 99.406 287.814 C 100.292 289.246,101.193 290.068,102.797 290.906 L 104.982 292.047 115.391 291.924 C 125.267 291.806,125.894 291.754,127.640 290.893 C 137.103 286.230,136.556 272.366,126.767 268.788 C 123.870 267.729,98.545 267.558,98.147 268.594 " stroke="none" fill="#74d404" fill-rule="evenodd"></path></g></svg>